<?xml version="1.0" encoding="UTF-8" standalone="no"?>
<svg width="1000px" height="1000px" viewBox="0 0 1000 1000" version="1.1" xmlns="http://www.w3.org/2000/svg" xmlns:xlink="http://www.w3.org/1999/xlink">
    <!-- Generator: Sketch 50.2 (55047) - http://www.bohemiancoding.com/sketch -->
    <title>Custom Preset</title>
    <desc>Created with Sketch.</desc>
    <defs>
        <linearGradient x1="50%" y1="-2.48949813e-15%" x2="50%" y2="100%" id="linearGradient-1">
            <stop stop-color="#00B4DB" offset="0%"></stop>
            <stop stop-color="#0083B0" offset="100%"></stop>
        </linearGradient>
    </defs>
    <g id="Custom-Preset" stroke="none" stroke-width="1" fill="none" fill-rule="evenodd">
        <g id="Group">
            <circle id="Oval" fill="url(#linearGradient-1)" cx="500" cy="500" r="500"></circle>
            <path d="M500,838.802169 C333.333333,645.648181 250,503.047458 250,411 C250,272.928813 361.928813,161 500,161 C638.071187,161 750,272.928813 750,411 C750,503.047458 666.666667,645.648181 500,838.802169 Z M499.586777,547.77686 C579.46267,547.77686 644.214876,483.024654 644.214876,403.14876 C644.214876,323.272867 579.46267,258.520661 499.586777,258.520661 C419.710883,258.520661 354.958678,323.272867 354.958678,403.14876 C354.958678,483.024654 419.710883,547.77686 499.586777,547.77686 Z" id="Combined-Shape" fill="#FFFFFF"></path>
        </g>
    </g>
</svg>