<?xml version="1.0" encoding="UTF-8" standalone="no"?>
<svg width="1000px" height="1000px" viewBox="0 0 1000 1000" version="1.1" xmlns="http://www.w3.org/2000/svg" xmlns:xlink="http://www.w3.org/1999/xlink">
    <!-- Generator: Sketch 50.2 (55047) - http://www.bohemiancoding.com/sketch -->
    <title>Group 2</title>
    <desc>Created with Sketch.</desc>
    <defs>
        <linearGradient x1="50%" y1="-2.48949813e-15%" x2="50%" y2="100%" id="linearGradient-1">
            <stop stop-color="#00B4DB" offset="0%"></stop>
            <stop stop-color="#0083B0" offset="100%"></stop>
        </linearGradient>
    </defs>
    <g id="Page-1" stroke="none" stroke-width="1" fill="none" fill-rule="evenodd">
        <g id="Custom-Preset">
            <g id="Group-2">
                <g id="Group" fill="url(#linearGradient-1)">
                    <circle id="Oval" cx="500" cy="500" r="500"></circle>
                </g>
                <g id="Phone" transform="translate(186.000000, 171.000000)" fill="#FFFFFF" fill-rule="nonzero">
                    <path d="M300.374476,218.227639 C284.244729,262.153541 271.261934,310.041136 271.261934,357.928729 C271.261934,405.816339 284.244738,453.703949 300.374493,497.629865 C307.206313,494.857723 314.67638,493.330868 322.503063,493.330868 L367.440302,493.330868 C399.963736,493.330868 426.329191,519.696321 426.329191,552.219757 L426.329191,632.024498 C426.329191,664.547933 399.963736,690.913387 367.440302,690.913387 L322.503063,690.913387 C315.432524,690.913387 308.653024,689.667302 302.372189,687.38276 C215.358692,663.830919 148.551413,525.300641 148.551413,357.928729 C148.551413,190.556817 215.358692,52.0265379 302.372189,28.4746979 C308.653024,26.1901545 315.432524,24.9440701 322.503063,24.9440701 L344.971682,24.9440701 L367.440302,24.9440701 C399.963736,24.9440701 426.329191,51.3095245 426.329191,83.832959 L426.329191,163.637701 C426.329191,196.161137 399.963736,222.52659 367.440302,222.52659 L322.503063,222.52659 C314.676378,222.52659 307.20631,220.999735 300.374472,218.227637 L300.374476,218.227639 Z" id="Combined-Shape" transform="translate(287.440302, 357.928728) rotate(-30.000000) translate(-287.440302, -357.928728) "></path>
                </g>
            </g>
        </g>
    </g>
</svg>