<?xml version="1.0" encoding="UTF-8" standalone="no"?>
<svg width="1000px" height="1000px" viewBox="0 0 1000 1000" version="1.1" xmlns="http://www.w3.org/2000/svg" xmlns:xlink="http://www.w3.org/1999/xlink">
    <!-- Generator: Sketch 50.2 (55047) - http://www.bohemiancoding.com/sketch -->
    <title>Group 2</title>
    <desc>Created with Sketch.</desc>
    <defs>
        <linearGradient x1="50%" y1="-2.48949813e-15%" x2="50%" y2="100%" id="linearGradient-1">
            <stop stop-color="#00B4DB" offset="0%"></stop>
            <stop stop-color="#0083B0" offset="100%"></stop>
        </linearGradient>
    </defs>
    <g id="Page-1" stroke="none" stroke-width="1" fill="none" fill-rule="evenodd">
        <g id="Custom-Preset">
            <g id="Group-2">
                <g id="Group" fill="url(#linearGradient-1)">
                    <circle id="Oval" cx="500" cy="500" r="500"></circle>
                </g>
                <path d="M570.533798,620.460135 C481.769153,685.242757 356.610016,677.56504 276.471962,597.426986 C187.842679,508.797703 187.842679,365.101244 276.471962,276.471962 C365.101244,187.842679 508.797703,187.842679 597.426986,276.471962 C677.56504,356.610016 685.242757,481.769153 620.460135,570.533798 L790,740.073663 L740.073663,790 L570.533798,620.460135 Z M543.934482,543.934482 C603.02067,484.848293 603.02067,389.050654 543.934482,329.964466 C484.848293,270.878278 389.050654,270.878278 329.964466,329.964466 C270.878278,389.050654 270.878278,484.848293 329.964466,543.934482 C389.050654,603.02067 484.848293,603.02067 543.934482,543.934482 Z" id="Combined-Shape" fill="#FFFFFF"></path>
            </g>
        </g>
    </g>
</svg>