<?xml version="1.0" encoding="UTF-8" standalone="no"?>
<svg width="3314px" height="800px" viewBox="0 0 3314 800" version="1.1" xmlns="http://www.w3.org/2000/svg" xmlns:xlink="http://www.w3.org/1999/xlink">
    <!-- Generator: Sketch 50.2 (55047) - http://www.bohemiancoding.com/sketch -->
    <title>Group</title>
    <desc>Created with Sketch.</desc>
    <defs>
        <linearGradient x1="-1.11022302e-14%" y1="50%" x2="100%" y2="50%" id="linearGradient-1">
            <stop stop-color="#00B4DB" offset="0%"></stop>
            <stop stop-color="#0083B0" offset="100%"></stop>
        </linearGradient>
    </defs>
    <g id="Page-1" stroke="none" stroke-width="1" fill="none" fill-rule="evenodd">
        <g id="Custom-Preset-Copy" transform="translate(-100.000000, -100.000000)">
            <g id="Group" transform="translate(100.000000, 100.000000)">
                <path d="M175.020793,175 L0,175 L0,0 L200.023764,0 L400.047528,0 C604.052647,0 772.392172,152.684421 797,350 L619.498189,350 C596.759029,249.800565 507.13962,175 400.047528,175 L287.534161,175 L175.020793,175 Z M175.020793,275 L175.020793,625 L287.534161,625 L400.047528,625 C507.13962,625 596.759029,550.199435 619.498189,450 L797,450 C772.392172,647.315579 604.052647,800 400.047528,800 L200.023764,800 L0,800 L0,275 L175.020793,275 Z" id="Combined-Shape" fill="url(#linearGradient-1)"></path>
                <path d="M1000,109 L1118.33047,109.34 C1183.76824,109.34 1237,162.38 1237,228 C1237,257.24 1226.48927,284.1 1208.85837,304.84 C1206.82403,307.22 1204.45064,309.6 1202.07725,311.98 C1180.71674,333.74 1151.21888,347 1118.66953,347 L1000,347 L1000,109 Z M1042,152 L1042,305 L1118.5,305 C1160.66,305 1195,270.66 1195,228.5 C1195,186.34 1160.66,152 1118.5,152 L1042,152 Z M1314,347 L1272,347 L1272,109 L1314,109 L1314,347 Z M1467,151.5 C1424.84,151.5 1390.5,185.84 1390.5,228 C1390.5,270.16 1424.84,304.5 1467,304.5 L1543.5,304.5 L1543.5,258.94 L1467,258.94 L1467,216.44 L1586,216.44 L1586,347 L1467,347 C1401.38,347 1348,293.62 1348,228 C1348,162.38 1401.38,109 1467,109 L1586,109 L1586,151.5 L1467,151.5 Z M1662,347 L1620,347 L1620,109 L1662,109 L1662,347 Z M1696,109 L1933,109 L1933,151.5 L1835.69099,151.5 L1835.69099,347 L1793.30901,347 L1793.30901,151.5 L1696,151.5 L1696,109 Z M2107.30812,304.5 L2129,347 L2081.54902,347 L2059.85714,304.5 L2008,202.5 L1956.14286,304.5 L1934.45098,347 L1887,347 L1908.69188,304.5 L2008,109 L2107.30812,304.5 Z M2212.33449,304.16 L2337,304.5 L2337,347 L2216.41075,347 C2204.52166,347 2193.31196,344.28 2183.12132,339.18 C2168.17504,331.7 2155.94627,319.46 2148.81282,304.5 C2143.7175,294.3 2141,283.08 2141,271.18 L2141,109 L2183.46101,109 L2183.46101,275.26 C2185.49913,290.22 2197.38821,302.12 2212.33449,304.16 Z M1116,495.5 C1073.84,495.5 1039.5,529.84 1039.5,572 C1039.5,614.16 1073.84,648.5 1116,648.5 L1235,648.5 L1235,691 L1116,691 C1050.38,691 997,637.62 997,572 C997,506.38 1050.38,453 1116,453 L1235,453 L1235,495.5 L1116,495.5 Z M1364,453 C1429.62,453 1483,506.38 1483,572 C1483,637.62 1429.62,691 1364,691 C1298.38,691 1245,637.62 1245,572 C1245,506.38 1298.38,453 1364,453 Z M1363.5,649 C1405.66,649 1440,614.66 1440,572.5 C1440,530.34 1405.66,496 1363.5,496 C1321.34,496 1287,530.34 1287,572.5 C1287,614.66 1321.34,649 1363.5,649 Z M1703.5,485.64 L1746,453 L1746,691 L1703.5,691 L1703.5,539.36 L1661.68,571.32 L1627,598.18 L1592.32,571.32 L1550.5,539.36 L1550.5,691 L1508,691 L1508,453 L1550.5,485.64 L1627,544.46 L1703.5,485.64 Z M1974.97778,471.7 L1975.31746,472.38 C1986.86667,483.94 1994,499.92 1994,517.6 C1994,543.44 1978.71429,565.88 1956.63492,576.08 C1950.86032,578.8 1944.74603,580.5 1938.29206,581.18 L1936.25397,581.18 L1936.25397,581.52 L1822.46032,581.52 L1822.46032,691 L1780,691 L1780,453 L1929.8,453 C1947.46349,453 1963.42857,460.14 1974.97778,471.7 Z M1938.13386,537.953488 L1938.13386,537.612403 C1945.92126,534.20155 1951,526.356589 1951,517.829457 C1951,509.984496 1946.93701,504.527132 1944.56693,502.139535 C1941.85827,499.410853 1936.77953,496 1929.33071,496 L1822,496 L1822,540 L1929.33071,540 C1932.37795,540 1935.4252,539.317829 1938.13386,537.953488 Z M2222.5,453 L2265,453 L2265,572 C2265,637.62 2211.62,691 2146,691 C2080.38,691 2027,637.62 2027,572 L2027,453 L2069.5,453 L2069.5,572 C2069.5,614.16 2103.84,648.5 2146,648.5 C2188.16,648.5 2222.5,614.16 2222.5,572 L2222.5,453 Z M2299,453 L2536,453 L2536,495.5 L2438.69099,495.5 L2438.69099,691 L2396.30901,691 L2396.30901,495.5 L2299,495.5 L2299,453 Z M2634.74249,495.5 C2622.87554,495.5 2613.04292,505.36 2613.04292,517.26 L2613.04292,539.36 L2765.61803,539.36 L2765.61803,581.86 L2613.04292,581.86 L2613.04292,626.74 C2613.04292,638.64 2622.87554,648.5 2634.74249,648.5 L2808,648.5 L2808,691 L2634.74249,691 C2599.48069,691 2571,662.1 2571,626.74 L2571,517.26 C2571,481.9 2599.48069,453 2634.74249,453 L2808,453 L2808,495.5 L2634.74249,495.5 Z M2999.29206,580.84 L3033.26032,648.5 L3055,691 L3007.44444,691 L2985.70476,648.5 L2962.94603,603.96 L2961.92698,601.92 C2954.45397,589.68 2941.20635,581.52 2925.92063,581.52 L2883.46032,581.52 L2883.46032,691 L2841,691 L2841,453 L2991.13968,453 C3008.80317,453 3024.76825,460.14 3036.31746,471.7 C3047.86667,483.6 3055,499.58 3055,517.26 C3055,543.1 3039.71429,565.54 3017.63492,575.74 C3011.86032,578.46 3005.74603,580.16 2999.29206,580.84 Z M2884,540 L2991.33071,539.658915 C2994.37795,539.658915 2997.4252,538.976744 3000.13386,537.612403 C3007.92126,534.20155 3013,526.356589 3013,517.829457 C3013,509.984496 3008.93701,504.527132 3006.56693,502.139535 C3003.85827,499.410853 2998.77953,496 2991.33071,496 L2884,496 L2884,540 Z M3314,518.62 L3271.63994,518.96 L3271.63994,517.6 C3271.63994,505.7 3261.81241,495.84 3249.95159,495.84 L3153.70953,495.84 C3141.84871,495.84 3132.02118,505.7 3132.02118,517.6 L3132.02118,518.96 C3132.02118,530.86 3141.84871,540.72 3153.70953,540.72 L3239.10741,540.72 C3261.13464,540.72 3280.78971,550.24 3294.34493,565.2 C3295.36157,566.22 3296.03933,567.24 3297.05598,568.26 C3307.56127,581.18 3314,597.84 3314,615.86 C3314,657.34 3280.45083,691 3239.10741,691 L3164.89259,691 C3123.54917,691 3090,657.34 3090,615.86 L3132.36006,615.86 C3132.36006,633.88 3146.93192,648.5 3164.89259,648.5 L3239.10741,648.5 C3257.06808,648.5 3271.97882,633.88 3271.97882,615.86 C3271.97882,597.84 3257.06808,583.22 3239.10741,583.22 L3153.70953,583.22 C3136.42663,583.22 3120.83812,576.42 3109.31619,565.2 C3106.26626,562.14 3103.55522,558.74 3101.18306,555 C3094.06657,544.8 3090,532.22 3090,518.62 L3090,517.26 C3090,481.9 3118.46596,453 3153.70953,453 L3249.95159,453 C3285.19516,453 3314,481.9 3314,517.26 L3314,518.62 Z" id="DIGITAL-COMPUTERS" fill="#000000"></path>
            </g>
        </g>
    </g>
</svg>