<?xml version="1.0" encoding="UTF-8" standalone="no"?>
<svg width="150px" height="38px" viewBox="0 0 150 38" version="1.1" xmlns="http://www.w3.org/2000/svg" xmlns:xlink="http://www.w3.org/1999/xlink">
    <!-- Generator: Sketch 50.2 (55047) - http://www.bohemiancoding.com/sketch -->
    <title>DIGITAL COMPUTERS</title>
    <desc>Created with Sketch.</desc>
    <defs></defs>
    <g id="Page-1" stroke="none" stroke-width="1" fill="none" fill-rule="evenodd">
        <g id="Extra-large:-Desktops---12-col" transform="translate(-165.000000, -24.000000)" fill="#FFFFFF">
            <path d="M165.219684,24 L172.886643,24.0219684 C177.126538,24.0219684 180.575571,27.4490334 180.575571,31.6889279 C180.575571,33.5782074 179.894552,35.3137083 178.752197,36.6537786 C178.620387,36.8075571 178.466608,36.9613357 178.31283,37.1151142 C176.928822,38.5210896 175.017575,39.3778559 172.908612,39.3778559 L165.219684,39.3778559 L165.219684,24 Z M167.943761,26.7680141 L167.943761,36.6537786 L172.886643,36.6537786 C175.610721,36.6537786 177.829525,34.4349736 177.829525,31.7108963 C177.829525,28.986819 175.610721,26.7680141 172.886643,26.7680141 L167.943761,26.7680141 Z M185.540422,39.3778559 L182.794376,39.3778559 L182.794376,24 L185.540422,24 L185.540422,39.3778559 Z M195.426186,26.7460457 C192.702109,26.7460457 190.483304,28.9648506 190.483304,31.6889279 C190.483304,34.4130053 192.702109,36.6318102 195.426186,36.6318102 L200.369069,36.6318102 L200.369069,33.6880492 L195.426186,33.6880492 L195.426186,30.9420035 L203.115114,30.9420035 L203.115114,39.3778559 L195.426186,39.3778559 C191.186292,39.3778559 187.737258,35.9288225 187.737258,31.6889279 C187.737258,27.4490334 191.186292,24 195.426186,24 L203.115114,24 L203.115114,26.7460457 L195.426186,26.7460457 Z M208.057996,39.3778559 L205.311951,39.3778559 L205.311951,24 L208.057996,24 L208.057996,39.3778559 Z M210.254833,24.0219684 L225.610721,24.0219684 L225.610721,26.7680141 L219.3058,26.7680141 L219.3058,39.3998243 L216.559754,39.3998243 L216.559754,26.7680141 L210.254833,26.7680141 L210.254833,24.0219684 Z M236.90246,36.6318102 L238.308436,39.3778559 L235.232865,39.3778559 L233.826889,36.6318102 L230.465729,30.0413005 L227.104569,36.6318102 L225.698594,39.3778559 L222.623023,39.3778559 L224.028998,36.6318102 L230.465729,24 L236.90246,36.6318102 Z M243.668717,36.6318102 L251.731107,36.6537786 L251.731107,39.3998243 L243.932337,39.3998243 C243.163445,39.3998243 242.438489,39.2240773 241.779438,38.8945518 C240.81283,38.4112478 240.021968,37.6203866 239.560633,36.6537786 C239.231107,35.9947276 239.05536,35.2697715 239.05536,34.5008787 L239.05536,24.0219684 L241.801406,24.0219684 L241.801406,34.7644991 C241.933216,35.7311072 242.702109,36.5 243.668717,36.6318102 Z M172.688928,49.0195274 C169.964851,49.0195274 167.746046,51.2383324 167.746046,53.9624097 C167.746046,56.686487 169.964851,58.9052919 172.688928,58.9052919 L180.377856,58.9052919 L180.377856,61.6513376 L172.688928,61.6513376 C168.449033,61.6513376 165,58.2023042 165,53.9624097 C165,49.7225151 168.449033,46.2734817 172.688928,46.2734817 L180.377856,46.2734817 L180.377856,49.0195274 L172.688928,49.0195274 Z M188.747803,46.2734817 C192.987698,46.2734817 196.436731,49.7225151 196.436731,53.9624097 C196.436731,58.2023042 192.987698,61.6513376 188.747803,61.6513376 C184.507909,61.6513376 181.058875,58.2023042 181.058875,53.9624097 C181.058875,49.7225151 184.507909,46.2734817 188.747803,46.2734817 Z M188.747803,58.9052919 C191.47188,58.9052919 193.690685,56.686487 193.690685,53.9624097 C193.690685,51.2383324 191.47188,49.0195274 188.747803,49.0195274 C186.023726,49.0195274 183.804921,51.2383324 183.804921,53.9624097 C183.804921,56.686487 186.023726,58.9052919 188.747803,58.9052919 Z M210.716169,48.3824448 L213.462214,46.2734817 L213.462214,61.6513376 L210.716169,61.6513376 L210.716169,51.8534466 L208.01406,53.918473 L205.773286,55.6539738 L203.532513,53.918473 L200.830404,51.8534466 L200.830404,61.6513376 L198.084359,61.6513376 L198.084359,46.2734817 L200.830404,48.3824448 L205.773286,52.1829721 L210.716169,48.3824448 Z M228.290861,47.4817418 L228.31283,47.5256786 C229.059754,48.272603 229.52109,49.3051162 229.52109,50.4474712 C229.52109,52.117067 228.532513,53.5669791 227.104569,54.2260301 C226.731107,54.401777 226.335677,54.5116188 225.918278,54.5555556 L225.786467,54.5555556 L225.786467,54.5775239 L218.427065,54.5775239 L218.427065,61.6513376 L215.681019,61.6513376 L215.681019,46.2734817 L225.369069,46.2734817 C226.511424,46.2734817 227.543937,46.7348174 228.290861,47.4817418 Z M225.962214,51.7436048 L225.962214,51.7216364 C226.467487,51.5019527 226.797012,50.9966803 226.797012,50.4474712 C226.797012,49.9421988 226.533392,49.5907049 226.379613,49.4369264 C226.203866,49.2611795 225.874341,49.0414958 225.391037,49.0414958 L218.427065,49.0414958 L218.427065,51.875415 L225.391037,51.875415 C225.588752,51.875415 225.786467,51.8314782 225.962214,51.7436048 Z M244.327768,46.2734817 L247.073814,46.2734817 L247.073814,53.9624097 C247.073814,58.2023042 243.62478,61.6513376 239.384886,61.6513376 C235.144991,61.6513376 231.695958,58.2023042 231.695958,53.9624097 L231.695958,46.2734817 L234.442004,46.2734817 L234.442004,53.9624097 C234.442004,56.686487 236.660808,58.9052919 239.384886,58.9052919 C242.108963,58.9052919 244.327768,56.686487 244.327768,53.9624097 L244.327768,46.2734817 Z M249.27065,46.2954501 L264.626538,46.2954501 L264.626538,49.0414958 L258.321617,49.0414958 L258.321617,61.673306 L255.575571,61.673306 L255.575571,49.0414958 L249.27065,49.0414958 L249.27065,46.2954501 Z M270.997364,49.0195274 C270.228471,49.0195274 269.591388,49.65661 269.591388,50.4255028 L269.591388,51.8534466 L279.477153,51.8534466 L279.477153,54.5994923 L269.591388,54.5994923 L269.591388,57.4993165 C269.591388,58.2682093 270.228471,58.9052919 270.997364,58.9052919 L282.223199,58.9052919 L282.223199,61.6513376 L270.997364,61.6513376 C268.712654,61.6513376 266.867311,59.7840266 266.867311,57.4993165 L266.867311,50.4255028 C266.867311,48.1407928 268.712654,46.2734817 270.997364,46.2734817 L282.223199,46.2734817 L282.223199,49.0195274 L270.997364,49.0195274 Z M294.635325,54.5555556 L296.832162,58.9272603 L298.238137,61.673306 L295.162566,61.673306 L293.756591,58.9272603 L292.28471,56.0494044 L292.218805,55.9175942 C291.735501,55.1267331 290.878735,54.5994923 289.890158,54.5994923 L287.144112,54.5994923 L287.144112,61.673306 L284.398067,61.673306 L284.398067,46.2954501 L294.108084,46.2954501 C295.250439,46.2954501 296.282953,46.7567858 297.029877,47.5037102 C297.776801,48.272603 298.238137,49.3051162 298.238137,50.4474712 C298.238137,52.117067 297.249561,53.5669791 295.821617,54.2260301 C295.448155,54.401777 295.052724,54.5116188 294.635325,54.5555556 Z M287.144112,51.875415 L294.108084,51.8534466 C294.3058,51.8534466 294.503515,51.8095099 294.679262,51.7216364 C295.184534,51.5019527 295.51406,50.9966803 295.51406,50.4474712 C295.51406,49.9421988 295.250439,49.5907049 295.096661,49.4369264 C294.920914,49.2611795 294.591388,49.0414958 294.108084,49.0414958 L287.144112,49.0414958 L287.144112,51.875415 Z M315,50.5133763 L312.253954,50.5353447 L312.253954,50.4474712 C312.253954,49.6785784 311.616872,49.0414958 310.847979,49.0414958 L304.608963,49.0414958 C303.84007,49.0414958 303.202988,49.6785784 303.202988,50.4474712 L303.202988,50.5353447 C303.202988,51.3042375 303.84007,51.9413201 304.608963,51.9413201 L310.144991,51.9413201 C311.572935,51.9413201 312.8471,52.5564343 313.725835,53.5230424 C313.79174,53.5889475 313.835677,53.6548526 313.901582,53.7207577 C314.582601,54.5555556 315,55.6320055 315,56.7963288 C315,59.4764694 312.825132,61.6513376 310.144991,61.6513376 L305.333919,61.6513376 C302.653779,61.6513376 300.47891,59.4764694 300.47891,56.7963288 L303.224956,56.7963288 C303.224956,57.9606522 304.169596,58.9052919 305.333919,58.9052919 L310.144991,58.9052919 C311.309315,58.9052919 312.275923,57.9606522 312.275923,56.7963288 C312.275923,55.6320055 311.309315,54.6873657 310.144991,54.6873657 L304.608963,54.6873657 C303.488576,54.6873657 302.478032,54.2479984 301.731107,53.5230424 C301.533392,53.3253271 301.357645,53.1056434 301.203866,52.8639914 C300.742531,52.2049404 300.47891,51.3921109 300.47891,50.5133763 L300.47891,50.4255028 C300.47891,48.1407928 302.324253,46.2734817 304.608963,46.2734817 L310.847979,46.2734817 C313.132689,46.2734817 315,48.1407928 315,50.4255028 L315,50.5133763 Z" id="DIGITAL-COMPUTERS"></path>
        </g>
    </g>
</svg>