<?xml version="1.0" encoding="UTF-8" standalone="no"?>
<svg width="2932px" height="800px" viewBox="0 0 2932 800" version="1.1" xmlns="http://www.w3.org/2000/svg" xmlns:xlink="http://www.w3.org/1999/xlink">
    <!-- Generator: Sketch 50.2 (55047) - http://www.bohemiancoding.com/sketch -->
    <title>Group</title>
    <desc>Created with Sketch.</desc>
    <defs>
        <linearGradient x1="-1.11022302e-14%" y1="50%" x2="100%" y2="50%" id="linearGradient-1">
            <stop stop-color="#00B4DB" offset="0%"></stop>
            <stop stop-color="#0083B0" offset="100%"></stop>
        </linearGradient>
    </defs>
    <g id="Page-1" stroke="none" stroke-width="1" fill="none" fill-rule="evenodd">
        <g id="Custom-Preset-Copy" transform="translate(-100.000000, -100.000000)">
            <g id="Group" transform="translate(100.000000, 100.000000)">
                <path d="M619.498189,350 C596.759029,249.800565 507.13962,175 400.047528,175 L287.534161,175 L175.020793,175 L175.020793,625 L287.534161,625 L400.047528,625 C507.13962,625 596.759029,550.199435 619.498189,450 L797,450 C772.392172,647.315579 604.052647,800 400.047528,800 L200.023764,800 L0,800 L0,0 L200.023764,0 L400.047528,0 C604.052647,0 772.392172,152.684421 797,350 L619.498189,350 Z" id="Combined-Shape" fill="url(#linearGradient-1)"></path>
                <path d="M979.86321,155 L1079.78925,155.286316 C1135.04921,155.286316 1180.00161,199.9516 1180.00161,255.210574 C1180.00161,279.833744 1171.12566,302.452702 1156.23697,319.917973 C1154.51904,321.922185 1152.51479,323.926396 1150.51054,325.930608 C1132.47232,344.254827 1107.56239,355.421148 1080.07557,355.421148 L979.86321,355.421148 L979.86321,155 Z M1015.36702,191.075807 L1015.36702,319.917973 L1079.78925,319.917973 C1115.29306,319.917973 1144.21148,291.000065 1144.21148,255.49689 C1144.21148,219.993715 1115.29306,191.075807 1079.78925,191.075807 L1015.36702,191.075807 Z M1244.71016,355.421148 L1208.92004,355.421148 L1208.92004,155 L1244.71016,155 L1244.71016,355.421148 Z M1373.55463,190.789491 C1338.05082,190.789491 1309.1324,219.707399 1309.1324,255.210574 C1309.1324,290.713749 1338.05082,319.631657 1373.55463,319.631657 L1437.97686,319.631657 L1437.97686,281.265323 L1373.55463,281.265323 L1373.55463,245.475833 L1473.76699,245.475833 L1473.76699,355.421148 L1373.55463,355.421148 C1318.29467,355.421148 1273.34227,310.469548 1273.34227,255.210574 C1273.34227,199.9516 1318.29467,155 1373.55463,155 L1473.76699,155 L1473.76699,190.789491 L1373.55463,190.789491 Z M1538.18922,355.421148 L1502.39909,355.421148 L1502.39909,155 L1538.18922,155 L1538.18922,355.421148 Z M1566.82132,155.286316 L1766.95972,155.286316 L1766.95972,191.075807 L1684.78559,191.075807 L1684.78559,355.707464 L1648.99546,355.707464 L1648.99546,191.075807 L1566.82132,191.075807 L1566.82132,155.286316 Z M1914.12873,319.631657 L1932.45328,355.421148 L1892.36834,355.421148 L1874.04379,319.631657 L1830.23667,233.73688 L1786.42955,319.631657 L1768.10501,355.421148 L1728.02006,355.421148 L1746.34461,319.631657 L1830.23667,155 L1914.12873,319.631657 Z M2002.31561,319.631657 L2107.39543,319.917973 L2107.39543,355.707464 L2005.75146,355.707464 C1995.73023,355.707464 1986.28163,353.416937 1977.692,349.122198 C1965.09388,342.823247 1954.78632,332.515874 1948.77358,319.917973 C1944.47876,311.328496 1942.1882,301.88007 1942.1882,291.859013 L1942.1882,155.286316 L1977.97832,155.286316 L1977.97832,295.294804 C1979.69625,307.892704 1989.71749,317.913762 2002.31561,319.631657 Z M1077.21236,481.082027 C1041.70855,481.082027 1012.79013,509.999935 1012.79013,545.50311 C1012.79013,581.006285 1041.70855,609.924193 1077.21236,609.924193 L1177.42472,609.924193 L1177.42472,645.713684 L1077.21236,645.713684 C1021.9524,645.713684 977,600.762084 977,545.50311 C977,490.244136 1021.9524,445.292536 1077.21236,445.292536 L1177.42472,445.292536 L1177.42472,481.082027 L1077.21236,481.082027 Z M1286.51303,445.292536 C1341.77299,445.292536 1386.7254,490.244136 1386.7254,545.50311 C1386.7254,600.762084 1341.77299,645.713684 1286.51303,645.713684 C1231.25308,645.713684 1186.30067,600.762084 1186.30067,545.50311 C1186.30067,490.244136 1231.25308,445.292536 1286.51303,445.292536 Z M1286.51303,609.924193 C1322.01684,609.924193 1350.93527,581.006285 1350.93527,545.50311 C1350.93527,509.999935 1322.01684,481.082027 1286.51303,481.082027 C1251.00923,481.082027 1222.0908,509.999935 1222.0908,545.50311 C1222.0908,581.006285 1251.00923,609.924193 1286.51303,609.924193 Z M1572.83407,472.778865 L1608.62419,445.292536 L1608.62419,645.713684 L1572.83407,645.713684 L1572.83407,518.016781 L1537.61658,544.930478 L1508.41183,567.549436 L1479.20709,544.930478 L1443.9896,518.016781 L1443.9896,645.713684 L1408.19947,645.713684 L1408.19947,445.292536 L1443.9896,472.778865 L1508.41183,522.31152 L1572.83407,472.778865 Z M1801.89089,461.039912 L1802.17721,461.612544 C1811.91213,471.347285 1817.92487,484.804134 1817.92487,499.692562 C1817.92487,521.452572 1805.04042,540.349423 1786.42955,548.938901 C1781.5621,551.229429 1776.40832,552.661008 1770.96822,553.23364 L1769.25029,553.23364 L1769.25029,553.519956 L1673.33275,553.519956 L1673.33275,645.713684 L1637.54262,645.713684 L1637.54262,445.292536 L1763.81019,445.292536 C1778.69889,445.292536 1792.15598,451.30517 1801.89089,461.039912 Z M1771.54086,516.585202 L1771.54086,516.298886 C1778.12624,513.435726 1782.42106,506.85046 1782.42106,499.692562 C1782.42106,493.107296 1778.98521,488.526241 1776.98096,486.522029 C1774.69039,484.231502 1770.39558,481.368343 1764.09651,481.368343 L1673.33275,481.368343 L1673.33275,518.303097 L1764.09651,518.303097 C1766.6734,518.303097 1769.25029,517.730465 1771.54086,516.585202 Z M2010.90524,445.292536 L2046.69537,445.292536 L2046.69537,545.50311 C2046.69537,600.762084 2001.74297,645.713684 1946.48301,645.713684 C1891.22305,645.713684 1846.27065,600.762084 1846.27065,545.50311 L1846.27065,445.292536 L1882.06078,445.292536 L1882.06078,545.50311 C1882.06078,581.006285 1910.9792,609.924193 1946.48301,609.924193 C1981.98682,609.924193 2010.90524,581.006285 2010.90524,545.50311 L2010.90524,445.292536 Z M2075.32748,445.578852 L2275.46588,445.578852 L2275.46588,481.368343 L2193.29174,481.368343 L2193.29174,646 L2157.50161,646 L2157.50161,481.368343 L2075.32748,481.368343 L2075.32748,445.578852 Z M2358.49897,481.082027 C2348.47774,481.082027 2340.17443,489.385189 2340.17443,499.406246 L2340.17443,518.016781 L2469.01889,518.016781 L2469.01889,553.806272 L2340.17443,553.806272 L2340.17443,591.599974 C2340.17443,601.621031 2348.47774,609.924193 2358.49897,609.924193 L2504.80902,609.924193 L2504.80902,645.713684 L2358.49897,645.713684 C2328.72159,645.713684 2304.67062,621.37683 2304.67062,591.599974 L2304.67062,499.406246 C2304.67062,469.62939 2328.72159,445.292536 2358.49897,445.292536 L2504.80902,445.292536 L2504.80902,481.082027 L2358.49897,481.082027 Z M2666.5804,553.23364 L2695.21251,610.210509 L2713.53705,646 L2673.45211,646 L2655.12756,610.210509 L2635.94405,572.703123 L2635.08509,570.985227 C2628.78603,560.677854 2617.61951,553.806272 2604.73506,553.806272 L2568.94493,553.806272 L2568.94493,646 L2533.1548,646 L2533.1548,445.578852 L2659.7087,445.578852 C2674.59739,445.578852 2688.05448,451.591486 2697.7894,461.326228 C2707.52431,471.347285 2713.53705,484.804134 2713.53705,499.692562 C2713.53705,521.452572 2700.65261,540.349423 2682.04174,548.938901 C2677.17428,551.229429 2672.0205,552.661008 2666.5804,553.23364 Z M2568.94493,518.303097 L2659.7087,518.016781 C2662.28559,518.016781 2664.86248,517.444149 2667.15305,516.298886 C2673.73843,513.435726 2678.03325,506.85046 2678.03325,499.692562 C2678.03325,493.107296 2674.59739,488.526241 2672.59315,486.522029 C2670.30258,484.231502 2666.00776,481.368343 2659.7087,481.368343 L2568.94493,481.368343 L2568.94493,518.303097 Z M2932,500.55151 L2896.20987,500.837826 L2896.20987,499.692562 C2896.20987,489.671504 2887.90656,481.368343 2877.88533,481.368343 L2796.57015,481.368343 C2786.54892,481.368343 2778.24561,489.671504 2778.24561,499.692562 L2778.24561,500.837826 C2778.24561,510.858883 2786.54892,519.162045 2796.57015,519.162045 L2868.72305,519.162045 C2887.33392,519.162045 2903.94054,527.178891 2915.39338,539.776791 C2916.25234,540.635739 2916.82499,541.494687 2917.68395,542.353635 C2926.5599,553.23364 2932,567.26312 2932,582.437864 C2932,617.368407 2903.65422,645.713684 2868.72305,645.713684 L2806.01875,645.713684 C2771.08758,645.713684 2742.7418,617.368407 2742.7418,582.437864 L2778.53193,582.437864 C2778.53193,597.612609 2790.84373,609.924193 2806.01875,609.924193 L2868.72305,609.924193 C2883.89807,609.924193 2896.49619,597.612609 2896.49619,582.437864 C2896.49619,567.26312 2883.89807,554.951536 2868.72305,554.951536 L2796.57015,554.951536 C2781.96778,554.951536 2768.79701,549.225217 2759.0621,539.776791 C2756.48521,537.199948 2754.19464,534.336789 2752.19039,531.187314 C2746.17765,522.597836 2742.7418,512.004147 2742.7418,500.55151 L2742.7418,499.406246 C2742.7418,469.62939 2766.79277,445.292536 2796.57015,445.292536 L2877.88533,445.292536 C2907.66271,445.292536 2932,469.62939 2932,499.406246 L2932,500.55151 Z" id="DIGITAL-COMPUTERS" fill="#000000"></path>
            </g>
        </g>
    </g>
</svg>